<?xml version="1.0" encoding="UTF-8" standalone="no"?>
<!-- Created with Inkscape (http://www.inkscape.org/) -->

<svg
   width="210mm"
   height="210mm"
   viewBox="0 0 210 210"
   version="1.1"
   id="svg5"
   inkscape:version="1.2.2 (b0a84865, 2022-12-01)"
   sodipodi:docname="ok.svg"
   xmlns:inkscape="http://www.inkscape.org/namespaces/inkscape"
   xmlns:sodipodi="http://sodipodi.sourceforge.net/DTD/sodipodi-0.dtd"
   xmlns="http://www.w3.org/2000/svg"
   xmlns:svg="http://www.w3.org/2000/svg">
  <sodipodi:namedview
     id="namedview7"
     pagecolor="#ffffff"
     bordercolor="#000000"
     borderopacity="0.25"
     inkscape:showpageshadow="2"
     inkscape:pageopacity="0.0"
     inkscape:pagecheckerboard="0"
     inkscape:deskcolor="#d1d1d1"
     inkscape:document-units="mm"
     showgrid="false"
     inkscape:zoom="0.2102413"
     inkscape:cx="392.40625"
     inkscape:cy="639.74109"
     inkscape:window-width="1440"
     inkscape:window-height="847"
     inkscape:window-x="0"
     inkscape:window-y="25"
     inkscape:window-maximized="0"
     inkscape:current-layer="layer1" />
  <defs
     id="defs2" />
  <g
     inkscape:label="Layer 1"
     inkscape:groupmode="layer"
     id="layer1">
    <path
       id="path111"
       style="opacity:1;fill:#0000ff;stroke:#000000;stroke-width:0;stroke-dasharray:none;stroke-opacity:1"
       d="M 104.99975,5.0000005 A 99.999952,99.999952 0 0 0 5.0000005,104.99975 99.999952,99.999952 0 0 0 104.99975,205 99.999952,99.999952 0 0 0 205,104.99975 99.999952,99.999952 0 0 0 104.99975,5.0000005 Z m 0,28.5716405 a 71.428537,71.428537 0 0 1 71.42862,71.428109 71.428537,71.428537 0 0 1 -71.42862,71.42862 71.428537,71.428537 0 0 1 -71.428109,-71.42862 71.428537,71.428537 0 0 1 71.428109,-71.428109 z" />
  </g>
</svg>
